<?xml version="1.0" encoding="utf-8"?>
<!-- Generator: Adobe Illustrator 16.0.0, SVG Export Plug-In . SVG Version: 6.00 Build 0)  -->
<!DOCTYPE svg PUBLIC "-//W3C//DTD SVG 1.1//EN" "http://www.w3.org/Graphics/SVG/1.1/DTD/svg11.dtd">
<svg version="1.1" id="Capa_1" xmlns="http://www.w3.org/2000/svg" xmlns:xlink="http://www.w3.org/1999/xlink" x="0px" y="0px"
	 width="205px" height="114px" viewBox="0 0 205 114" enable-background="new 0 0 205 114" xml:space="preserve">
<path fill="#005E85" stroke="#005E85" d="M9.029,62.532C3.6,66.108,0.001,72.295,0,79.296c0.003,8.937,5.836,16.506,13.903,19.113
	V87.111c-2.307-1.827-3.792-4.646-3.791-7.814c0-3.517,1.807-6.578,4.56-8.372l0.109-0.072l79.109-57.174L85.26,7.44L9.029,62.532z
	 M195.973,62.532L116.824,5.331C113.04,2.104,108.023,0.011,102.5,0c-2.868,0.006-5.598,0.578-8.093,1.574l65.775,47.537
	c0.614,0.405,1.203,0.843,1.768,1.311l28.274,20.435l0.104,0.067c2.753,1.794,4.56,4.855,4.559,8.372
	c0.002,3.168-1.483,5.986-3.79,7.813v11.296c8.07-2.61,13.9-10.176,13.902-19.11C205,72.295,201.401,66.109,195.973,62.532z"/>
<g display="none">
	<path display="inline" fill="#3E4543" d="M34.992,106.095h0.719v5.943h-0.719V106.095z"/>
	<path display="inline" fill="#3E4543" d="M40.767,106.095c0.561,0,1.007,0.147,1.338,0.439c0.331,0.293,0.498,0.696,0.498,1.211
		v0.319c0,0.384-0.091,0.707-0.271,0.967c-0.18,0.26-0.439,0.449-0.776,0.567c0.195,0.396,0.396,0.804,0.604,1.225
		c0.207,0.42,0.408,0.825,0.603,1.215h-0.798l-1.154-2.315h-1.694v2.315h-0.728v-5.943H40.767z M39.117,109.014h1.65
		c0.336,0,0.606-0.084,0.807-0.253c0.2-0.169,0.302-0.4,0.302-0.696v-0.319c0-0.301-0.102-0.536-0.302-0.701
		c-0.201-0.166-0.471-0.249-0.807-0.249h-1.65V109.014z"/>
	<path display="inline" fill="#3E4543" d="M47.57,106.095c0.562,0,1.009,0.147,1.34,0.439c0.331,0.293,0.497,0.696,0.497,1.211
		v0.319c0,0.384-0.091,0.707-0.271,0.967c-0.18,0.26-0.439,0.449-0.776,0.567c0.196,0.396,0.396,0.804,0.604,1.225
		c0.207,0.42,0.408,0.825,0.603,1.215h-0.798l-1.153-2.315H45.92v2.315h-0.727v-5.943H47.57z M45.92,109.014h1.65
		c0.337,0,0.606-0.084,0.807-0.253c0.202-0.169,0.302-0.4,0.302-0.696v-0.319c0-0.301-0.1-0.536-0.302-0.701
		c-0.201-0.166-0.47-0.249-0.807-0.249h-1.65V109.014z"/>
	<path display="inline" fill="#3E4543" d="M51.997,106.095h0.719v5.943h-0.719V106.095z"/>
	<path display="inline" fill="#3E4543" d="M57.124,108.845h2.253v1.198c-0.007,0.639-0.21,1.143-0.612,1.513
		c-0.401,0.37-0.911,0.554-1.526,0.554c-0.567,0-1.055-0.185-1.463-0.554c-0.408-0.37-0.612-0.874-0.612-1.513V108.1
		c0-0.639,0.205-1.143,0.612-1.513c0.408-0.37,0.896-0.554,1.463-0.554c0.615,0,1.125,0.186,1.526,0.559
		c0.26,0.237,0.438,0.53,0.532,0.879l-0.691,0.186c-0.06-0.249-0.206-0.464-0.439-0.647c-0.233-0.184-0.555-0.275-0.963-0.275
		c-0.331,0-0.634,0.119-0.909,0.355c-0.275,0.237-0.412,0.565-0.412,0.985v1.996c0,0.42,0.137,0.748,0.412,0.985
		c0.274,0.236,0.59,0.354,0.944,0.354c0.39,0,0.723-0.118,0.999-0.354c0.274-0.237,0.415-0.565,0.42-0.985v-0.568h-1.534V108.845z"
		/>
	<path display="inline" fill="#3E4543" d="M65.498,112.038l-0.442-1.375h-2.006l-0.443,1.375h-0.763l1.863-5.943h0.692l1.863,5.943
		H65.498z M64.824,109.954l-0.771-2.67l-0.773,2.67H64.824z"/>
	<path display="inline" fill="#3E4543" d="M67.494,106.095h4.214v0.701H69.96v5.243h-0.719v-5.243h-1.747V106.095z"/>
	<path display="inline" fill="#3E4543" d="M74.138,106.095h0.718v5.943h-0.718V106.095z"/>
	<path display="inline" fill="#3E4543" d="M77.305,108.1c0-0.639,0.204-1.143,0.612-1.513c0.408-0.37,0.905-0.554,1.49-0.554
		c0.603,0,1.108,0.185,1.513,0.554c0.404,0.37,0.607,0.874,0.607,1.513v1.943c-0.006,0.639-0.21,1.143-0.612,1.513
		c-0.402,0.37-0.905,0.554-1.508,0.554c-0.585,0-1.082-0.185-1.49-0.554s-0.612-0.874-0.612-1.513V108.1z M78.023,110.069
		c0,0.42,0.138,0.748,0.413,0.985c0.275,0.236,0.596,0.354,0.962,0.354c0.385,0,0.714-0.118,0.99-0.354
		c0.274-0.237,0.416-0.565,0.42-0.985v-1.996c0-0.42-0.138-0.748-0.416-0.985c-0.278-0.236-0.609-0.355-0.994-0.355
		c-0.366,0-0.687,0.119-0.962,0.355c-0.275,0.237-0.413,0.565-0.413,0.985V110.069z"/>
	<path display="inline" fill="#3E4543" d="M84.126,106.095h0.683l3.025,4.489v-4.489h0.728v5.943H87.87l-3.025-4.506v4.506h-0.719
		V106.095z"/>
	<path display="inline" fill="#3E4543" d="M100.555,112.038h-0.719v-4.267l-1.392,3.052h-0.656l-1.393-3.052v4.267h-0.719v-5.943
		h0.691l1.749,3.726l1.747-3.726h0.692V112.038z"/>
	<path display="inline" fill="#3E4543" d="M106.667,112.038l-0.444-1.375h-2.005l-0.443,1.375h-0.762l1.862-5.943h0.692l1.864,5.943
		H106.667z M105.992,109.954l-0.772-2.67l-0.771,2.67H105.992z"/>
	<path display="inline" fill="#3E4543" d="M109.878,106.095h0.683l3.025,4.489v-4.489h0.728v5.943h-0.691l-3.025-4.506v4.506h-0.719
		V106.095z"/>
	<path display="inline" fill="#3E4543" d="M121.197,106.095v3.948c-0.006,0.639-0.209,1.143-0.611,1.513
		c-0.402,0.37-0.902,0.554-1.5,0.554c-0.585,0-1.082-0.185-1.49-0.554s-0.612-0.874-0.612-1.513v-3.948h0.719v3.957
		c0,0.432,0.137,0.766,0.413,1.002c0.275,0.236,0.595,0.354,0.962,0.354c0.379,0,0.706-0.118,0.98-0.354
		c0.275-0.237,0.415-0.571,0.421-1.002v-3.957H121.197z"/>
	<path display="inline" fill="#3E4543" d="M123.876,106.095h3.548v0.701h-2.829v1.961h2.306v0.701h-2.306v2.581h-0.719V106.095z"/>
	<path display="inline" fill="#3E4543" d="M132.649,112.038l-0.444-1.375H130.2l-0.443,1.375h-0.763l1.863-5.943h0.692l1.863,5.943
		H132.649z M131.974,109.954l-0.771-2.67l-0.771,2.67H131.974z"/>
	<path display="inline" fill="#3E4543" d="M139.613,110.654c-0.095,0.361-0.272,0.663-0.532,0.905
		c-0.403,0.366-0.946,0.55-1.632,0.55c-0.544,0-1.02-0.185-1.428-0.554s-0.612-0.874-0.612-1.513V108.1
		c0-0.639,0.204-1.143,0.612-1.513c0.408-0.37,0.884-0.554,1.428-0.554c0.686,0,1.229,0.186,1.632,0.559
		c0.26,0.237,0.438,0.53,0.532,0.879l-0.692,0.186c-0.064-0.225-0.186-0.414-0.363-0.568c-0.278-0.236-0.65-0.355-1.118-0.355
		c-0.325,0-0.625,0.119-0.901,0.355c-0.275,0.237-0.412,0.565-0.412,0.985v1.996c0,0.42,0.137,0.748,0.412,0.985
		c0.275,0.236,0.576,0.354,0.901,0.354c0.467,0,0.836-0.118,1.109-0.354c0.183-0.154,0.308-0.349,0.372-0.585L139.613,110.654z"/>
	<path display="inline" fill="#3E4543" d="M141.928,106.095h4.213v0.701h-1.747v5.243h-0.719v-5.243h-1.748V106.095z"/>
	<path display="inline" fill="#3E4543" d="M152.767,106.095v3.948c-0.005,0.639-0.21,1.143-0.611,1.513
		c-0.402,0.37-0.902,0.554-1.5,0.554c-0.585,0-1.082-0.185-1.489-0.554c-0.409-0.37-0.612-0.874-0.612-1.513v-3.948h0.718v3.957
		c0,0.432,0.138,0.766,0.413,1.002c0.275,0.236,0.596,0.354,0.962,0.354c0.379,0,0.706-0.118,0.98-0.354
		c0.276-0.237,0.415-0.571,0.422-1.002v-3.957H152.767z"/>
	<path display="inline" fill="#3E4543" d="M157.815,106.095c0.561,0,1.008,0.147,1.339,0.439c0.331,0.293,0.497,0.696,0.497,1.211
		v0.319c0,0.384-0.09,0.707-0.27,0.967c-0.181,0.26-0.439,0.449-0.777,0.567c0.195,0.396,0.396,0.804,0.604,1.225
		c0.207,0.42,0.408,0.825,0.603,1.215h-0.798l-1.153-2.315h-1.694v2.315h-0.728v-5.943H157.815z M156.166,109.014h1.65
		c0.337,0,0.605-0.084,0.808-0.253c0.201-0.169,0.301-0.4,0.301-0.696v-0.319c0-0.301-0.101-0.536-0.301-0.701
		c-0.202-0.166-0.471-0.249-0.808-0.249h-1.65V109.014z"/>
	<path display="inline" fill="#3E4543" d="M165.816,106.095v0.701h-2.83v1.881h2.093v0.701h-2.093v1.961h2.83v0.7h-3.548v-5.943
		H165.816z"/>
	<path display="inline" fill="#3E4543" d="M170.642,106.095c0.562,0,1.008,0.147,1.339,0.439c0.331,0.293,0.497,0.696,0.497,1.211
		v0.319c0,0.384-0.09,0.707-0.27,0.967c-0.181,0.26-0.44,0.449-0.776,0.567c0.195,0.396,0.396,0.804,0.603,1.225
		c0.207,0.42,0.408,0.825,0.603,1.215h-0.798l-1.153-2.315h-1.693v2.315h-0.728v-5.943H170.642z M168.993,109.014h1.649
		c0.337,0,0.606-0.084,0.807-0.253s0.302-0.4,0.302-0.696v-0.319c0-0.301-0.101-0.536-0.302-0.701
		c-0.201-0.166-0.47-0.249-0.807-0.249h-1.649V109.014z"/>
</g>
<g>
	<path fill="#63A70A" d="M23.134,78.939c0-1.155,0.161-2.244,0.483-3.264c0.161-0.591,0.383-1.094,0.665-1.511
		c0.283-0.417,0.571-0.799,0.867-1.149c0.833-0.968,1.827-1.719,2.982-2.257c1.155-0.537,2.391-0.806,3.707-0.806h10.681
		c0.268,0,0.403,0.135,0.403,0.403v4.433c0,0.268-0.135,0.403-0.403,0.403H32.081c-1.048,0.215-1.828,0.759-2.337,1.632
		c-0.511,0.873-0.766,2.008-0.766,3.405v10.196c0.081,0.94,0.383,1.686,0.906,2.237c0.524,0.55,1.256,0.866,2.197,0.947h10.438
		c0.268,0,0.403,0.134,0.403,0.402v4.434c0,0.27-0.135,0.403-0.403,0.403H32.201c-0.805,0-1.519-0.073-2.135-0.222
		c-0.619-0.148-1.157-0.315-1.613-0.503c-1.021-0.376-1.935-0.988-2.74-1.834c-0.806-0.846-1.465-1.86-1.976-3.042
		c-0.134-0.295-0.269-0.691-0.402-1.189c-0.136-0.497-0.202-1.107-0.202-1.833V78.939z"/>
	<path fill="#63A70A" d="M46.226,70.355c0-0.268,0.134-0.403,0.402-0.403h5.038c0.268,0,0.403,0.135,0.403,0.403v10.962
		c0,0.269,0.134,0.402,0.403,0.402h9.551c0.268,0,0.403-0.133,0.403-0.402V70.355c0-0.268,0.133-0.403,0.402-0.403h5.038
		c0.269,0,0.403,0.135,0.403,0.403v28.089c0,0.27-0.135,0.403-0.403,0.403h-5.038c-0.269,0-0.402-0.133-0.402-0.403V87.362
		c0-0.269-0.136-0.403-0.403-0.403h-9.551c-0.269,0-0.403,0.134-0.403,0.403v11.083c0,0.27-0.135,0.403-0.403,0.403h-5.038
		c-0.269,0-0.402-0.133-0.402-0.403V70.355z"/>
	<path fill="#63A70A" d="M78.99,72.33c0.322-1.048,0.913-1.706,1.773-1.975c0.859-0.268,2.028-0.403,3.506-0.403
		c1.532,0,2.734,0.135,3.607,0.403c0.874,0.269,1.471,0.927,1.794,1.975l8.1,26.275c0,0.162-0.094,0.242-0.282,0.242h-5.279
		c-0.269,0-0.444-0.121-0.524-0.362l-2.136-6.972c-0.081-0.268-0.256-0.403-0.524-0.403h-9.471c-0.269,0-0.443,0.147-0.523,0.443
		l-2.136,6.892c-0.08,0.27-0.255,0.403-0.523,0.403h-5.239c-0.216,0-0.323-0.081-0.323-0.242L78.99,72.33z M84.752,75.917
		c-0.08-0.296-0.148-0.491-0.201-0.585c-0.054-0.094-0.147-0.141-0.282-0.141c-0.135,0-0.282,0.242-0.443,0.726l-2.82,9.188
		c0,0.055-0.007,0.094-0.021,0.12c-0.014,0.028-0.021,0.055-0.021,0.081c0,0.188,0.107,0.282,0.323,0.282h6.004
		c0.215,0,0.322-0.094,0.322-0.282c0-0.026-0.007-0.053-0.02-0.081c-0.014-0.026-0.021-0.065-0.021-0.12L84.752,75.917z"/>
	<path fill="#63A70A" d="M100.269,74.547c0-0.887,0.162-1.625,0.483-2.217c0.323-0.59,0.752-1.061,1.289-1.411
		c0.538-0.349,1.148-0.598,1.834-0.746c0.686-0.146,1.392-0.222,2.117-0.222c1.154,0,2.095,0.067,2.821,0.202
		c0.725,0.134,1.322,0.437,1.792,0.906c0.471,0.471,0.84,1.175,1.109,2.115c0.269,0.941,0.537,2.217,0.806,3.83l2.177,13.339
		c0.026,0.108,0.06,0.282,0.1,0.524c0.041,0.242,0.094,0.483,0.161,0.726c0.067,0.241,0.134,0.457,0.202,0.644
		c0.067,0.188,0.127,0.283,0.181,0.283c0.053,0,0.122-0.094,0.201-0.283c0.081-0.188,0.147-0.403,0.202-0.644
		c0.053-0.243,0.107-0.478,0.162-0.706c0.053-0.229,0.08-0.37,0.08-0.424l2.096-13.621c0.242-1.558,0.504-2.801,0.786-3.728
		s0.658-1.619,1.128-2.075c0.469-0.457,1.081-0.752,1.833-0.886c0.752-0.135,1.719-0.202,2.902-0.202
		c1.693,0,3.076,0.336,4.151,1.008c1.074,0.672,1.612,1.827,1.612,3.465v24.02c0,0.27-0.134,0.403-0.402,0.403h-5.038
		c-0.269,0-0.403-0.133-0.403-0.403V76.481c0-0.054-0.014-0.168-0.041-0.343c-0.027-0.174-0.107-0.262-0.242-0.262
		s-0.235,0.047-0.302,0.141c-0.068,0.094-0.128,0.195-0.181,0.302c-0.027,0.055-0.06,0.175-0.101,0.362
		c-0.04,0.188-0.081,0.39-0.121,0.605c-0.04,0.216-0.081,0.43-0.121,0.645c-0.041,0.215-0.075,0.376-0.101,0.483
		c-0.162,0.672-0.316,1.377-0.464,2.116s-0.356,1.719-0.624,2.942c-0.269,1.223-0.598,2.781-0.988,4.675s-0.907,4.319-1.552,7.274
		c-0.081,0.43-0.215,0.846-0.403,1.249c-0.188,0.403-0.45,0.766-0.785,1.088c-0.337,0.323-0.787,0.584-1.351,0.786
		s-1.276,0.302-2.136,0.302c-0.78,0-1.417-0.094-1.914-0.282c-0.497-0.188-0.907-0.423-1.229-0.705
		c-0.322-0.282-0.564-0.598-0.725-0.947c-0.162-0.35-0.282-0.686-0.363-1.008l-4.03-19.184c-0.027-0.053-0.074-0.207-0.142-0.463
		c-0.067-0.255-0.155-0.396-0.261-0.423h-0.202c-0.108,0-0.162,0.094-0.162,0.282v22.326c0,0.27-0.134,0.403-0.403,0.403h-5.038
		c-0.269,0-0.403-0.133-0.403-0.403V74.547z"/>
	<path fill="#63A70A" d="M141.334,86.838c-0.833,0-1.726-0.107-2.679-0.322c-0.955-0.215-1.821-0.632-2.601-1.25
		c-0.457-0.375-0.839-0.827-1.147-1.351c-0.31-0.523-0.566-1.087-0.767-1.692c-0.201-0.604-0.349-1.222-0.443-1.853
		c-0.095-0.631-0.141-1.256-0.141-1.875c0-0.268,0-0.523,0-0.766c0-0.241,0.027-0.483,0.081-0.725
		c0.187-2.338,1.061-4.152,2.62-5.44c0.457-0.376,1.021-0.739,1.692-1.089c0.671-0.349,1.33-0.524,1.976-0.524h13.339
		c0.269,0,0.403,0.135,0.403,0.403v4.433c0,0.268-0.134,0.403-0.403,0.403h-11.647c-0.376,0-0.719,0.168-1.027,0.504
		s-0.531,0.651-0.664,0.948c-0.136,0.268-0.216,0.537-0.243,0.805c-0.027,0.269-0.04,0.538-0.04,0.806
		c0,0.431,0.026,0.875,0.081,1.331c0.052,0.457,0.241,0.86,0.564,1.209c0.295,0.295,0.706,0.47,1.229,0.524
		c0.524,0.053,1.094,0.08,1.713,0.08h4.514c0.832,0,1.706,0.115,2.62,0.343c0.913,0.229,1.759,0.665,2.539,1.31
		c0.457,0.376,0.839,0.833,1.148,1.37c0.309,0.538,0.565,1.115,0.766,1.732c0.201,0.619,0.343,1.264,0.423,1.936
		c0.08,0.672,0.121,1.316,0.121,1.934c0,0.296,0,0.579,0,0.847c0,0.242-0.027,0.47-0.081,0.685c-0.215,2.445-1.074,4.327-2.58,5.642
		c-0.457,0.377-1.014,0.746-1.672,1.109c-0.659,0.363-1.283,0.543-1.874,0.543h-14.67c-0.269,0-0.403-0.133-0.403-0.403v-4.434
		c0-0.268,0.134-0.402,0.403-0.402h12.977c0.403,0,0.751-0.195,1.047-0.584c0.295-0.389,0.51-0.746,0.646-1.068
		c0.133-0.295,0.214-0.578,0.241-0.846c0.026-0.269,0.04-0.551,0.04-0.847c0-0.429-0.028-0.879-0.08-1.349
		c-0.055-0.47-0.243-0.893-0.565-1.27c-0.269-0.296-0.651-0.503-1.147-0.625c-0.498-0.121-1.083-0.181-1.754-0.181H141.334z"/>
	<path fill="#63A70A" d="M165.716,72.33c0.322-1.048,0.913-1.706,1.773-1.975c0.859-0.268,2.028-0.403,3.506-0.403
		c1.532,0,2.734,0.135,3.607,0.403c0.874,0.269,1.471,0.927,1.793,1.975l8.101,26.275c0,0.162-0.095,0.242-0.283,0.242h-5.279
		c-0.269,0-0.443-0.121-0.524-0.362l-2.136-6.972c-0.081-0.268-0.256-0.403-0.524-0.403h-9.47c-0.269,0-0.444,0.147-0.524,0.443
		l-2.136,6.892c-0.081,0.27-0.255,0.403-0.523,0.403h-5.24c-0.215,0-0.323-0.081-0.323-0.242L165.716,72.33z M171.479,75.917
		c-0.08-0.296-0.147-0.491-0.201-0.585c-0.054-0.094-0.148-0.141-0.282-0.141s-0.282,0.242-0.443,0.726l-2.821,9.188
		c0,0.055-0.007,0.094-0.02,0.12c-0.014,0.028-0.021,0.055-0.021,0.081c0,0.188,0.108,0.282,0.323,0.282h6.004
		c0.215,0,0.322-0.094,0.322-0.282c0-0.026-0.007-0.053-0.02-0.081c-0.014-0.026-0.02-0.065-0.02-0.12L171.479,75.917z"/>
</g>
</svg>
