<svg height="512" width="512" xmlns="http://www.w3.org/2000/svg">
    <path
        d="M145.074 212.929H62.098c-4.142 0-7.5 3.357-7.5 7.5s3.358 7.5 7.5 7.5h82.976c4.142 0 7.5-3.357 7.5-7.5s-3.358-7.5-7.5-7.5zM145.074 175.65H62.098c-4.142 0-7.5 3.357-7.5 7.5s3.358 7.5 7.5 7.5h82.976c4.142 0 7.5-3.357 7.5-7.5s-3.358-7.5-7.5-7.5zM493.896 328.34a3.076 3.076 0 01-2.926-2.078 100.092 100.092 0 00-5.144-12.412 3.092 3.092 0 01.594-3.561c7.058-7.059 7.058-18.544 0-25.604l-17.028-17.027c-7.059-7.057-18.543-7.059-25.606.004a3.09 3.09 0 01-3.556.591 100.153 100.153 0 00-12.411-5.144 3.077 3.077 0 01-2.081-2.927c0-9.982-8.122-18.104-18.104-18.104h-24.081c-9.982 0-18.104 8.122-18.104 18.104 0 1.33-.836 2.507-2.078 2.926a100.207 100.207 0 00-12.413 5.144 3.085 3.085 0 01-3.56-.594c-7.058-7.057-18.543-7.057-25.602 0l-17.028 17.028c-7.058 7.059-7.058 18.544.004 25.606.94.94 1.178 2.369.59 3.556a100.455 100.455 0 00-5.143 12.411 3.078 3.078 0 01-2.927 2.08c-9.982 0-18.104 8.121-18.104 18.104v24.08c0 9.982 8.122 18.104 18.104 18.104 1.33 0 2.506.836 2.926 2.079a100.539 100.539 0 005.144 12.412 3.09 3.09 0 01-.593 3.559c-7.076 7.074-7.077 18.528 0 25.604l17.027 17.026c7.075 7.076 18.525 7.079 25.605-.002a3.087 3.087 0 013.558-.59 100.546 100.546 0 0012.411 5.143 3.078 3.078 0 012.079 2.927c0 9.982 8.122 18.104 18.104 18.104h24.081c9.982 0 18.104-8.121 18.104-18.104 0-1.33.835-2.507 2.08-2.927a100.398 100.398 0 0012.413-5.144 3.087 3.087 0 013.558.593c7.075 7.076 18.527 7.078 25.603.001l17.027-17.027c7.074-7.072 7.079-18.526-.002-25.605a3.09 3.09 0 01-.591-3.557 100.501 100.501 0 005.144-12.412 3.077 3.077 0 012.926-2.079c9.982 0 18.104-8.122 18.104-18.104v-24.08c0-9.983-8.122-18.104-18.104-18.104zM497 370.523a3.108 3.108 0 01-3.104 3.104c-7.771 0-14.658 4.936-17.138 12.28a85.187 85.187 0 01-4.373 10.551 18.079 18.079 0 003.428 20.826 3.103 3.103 0 010 4.389l-17.028 17.028a3.103 3.103 0 01-4.393-.004 18.072 18.072 0 00-20.821-3.424 85.482 85.482 0 01-10.552 4.373c-7.345 2.479-12.28 9.367-12.28 17.138a3.108 3.108 0 01-3.104 3.104h-24.081a3.108 3.108 0 01-3.104-3.104c0-7.771-4.935-14.658-12.279-17.138a85.566 85.566 0 01-10.55-4.372 18.036 18.036 0 00-8.024-1.883 18.09 18.09 0 00-12.803 5.31 3.103 3.103 0 01-4.389-.001l-17.028-17.027a3.105 3.105 0 01.003-4.393 18.076 18.076 0 003.424-20.821 85.342 85.342 0 01-4.373-10.553c-2.48-7.345-9.368-12.279-17.138-12.279a3.108 3.108 0 01-3.104-3.104v-24.08a3.108 3.108 0 013.104-3.104 18.069 18.069 0 0017.138-12.281 85.385 85.385 0 014.372-10.55 18.077 18.077 0 00-3.427-20.825 3.11 3.11 0 010-4.391l17.027-17.027a3.11 3.11 0 014.393.002 18.076 18.076 0 0020.823 3.425 85.194 85.194 0 0110.552-4.372c7.344-2.481 12.278-9.369 12.278-17.138a3.108 3.108 0 013.104-3.104h24.081a3.108 3.108 0 013.104 3.104 18.071 18.071 0 0012.281 17.139 85.14 85.14 0 0110.55 4.372 18.082 18.082 0 0020.826-3.428 3.106 3.106 0 014.39 0l17.027 17.026a3.111 3.111 0 01-.002 4.394 18.078 18.078 0 00-3.425 20.824 85.13 85.13 0 014.372 10.55 18.066 18.066 0 0017.138 12.28 3.108 3.108 0 013.104 3.104v24.08z" />
    <path
        d="M395.595 307.319c-28.212 0-51.164 22.952-51.164 51.164s22.952 51.164 51.164 51.164 51.164-22.952 51.164-51.164-22.952-51.164-51.164-51.164zm0 87.328c-19.941 0-36.164-16.224-36.164-36.164s16.223-36.164 36.164-36.164 36.164 16.224 36.164 36.164-16.223 36.164-36.164 36.164z" />
    <path
        d="M273.844 420.413h-.002l-239.506.08h-.006c-10.681 0-19.329-8.644-19.329-19.33V154.029c0-10.658 8.671-19.33 19.33-19.33h230.761c13.397 0 25.652-7.873 31.222-20.057l23.416-51.221c3.136-6.858 10.036-11.292 17.577-11.293l106.32-.018h.004c10.68 0 19.328 8.643 19.329 19.329l.017 169.669a7.5 7.5 0 007.501 7.499c4.142 0 7.5-3.358 7.499-7.501l-.017-169.669c-.002-18.969-15.351-34.327-34.329-34.327h-.007l-106.32.018c-13.394.003-25.647 7.875-31.217 20.057l-3.982 8.71-267.765-.073h-.009C15.361 65.822 0 81.172 0 100.152v301.011c0 18.969 15.349 34.33 34.329 34.33h.011l239.506-.08a7.5 7.5 0 00-.002-15zM34.331 80.822h.005l260.912.072-12.577 27.512a19.377 19.377 0 01-17.58 11.293H34.33A34.133 34.133 0 0015 125.676v-25.524c0-10.682 8.644-19.33 19.331-19.33z" />
</svg>