<svg xmlns="http://www.w3.org/2000/svg" viewBox="0 0 511.88 511.88">
	<path
		d="M477.728 127.289c-.018-.263-.061-.511-.104-.773a8.476 8.476 0 00-.834-2.589c-.037-.071-.031-.15-.071-.22l-.043-.051a8.472 8.472 0 00-1.916-2.237 8.02 8.02 0 00-.663-.498c-.224-.156-.411-.354-.653-.49L260.111.965a8.028 8.028 0 00-.894-.289 7.31 7.31 0 00-3.262-.674 8.119 8.119 0 00-1.617.135 8.29 8.29 0 00-1.641.529c-.315.081-.625.18-.928.299L38.436 120.432c-.239.161-.47.334-.692.519a8.452 8.452 0 00-2.541 2.709l-.054.063c-.047.085-.041.181-.085.266a8.418 8.418 0 00-.809 2.541c-.042.262-.087.51-.104.773-.013.193-.076.375-.076.57v256a8.53 8.53 0 004.362 7.442l213.23 119.408.051.029.053.03c.365.18.743.333 1.131.457a6.196 6.196 0 003.039.635h.008a8.471 8.471 0 002.166-.288c.248-.066.477-.201.719-.29a8.392 8.392 0 001.277-.514l213.333-119.467a8.527 8.527 0 004.362-7.442v-256c.001-.2-.064-.386-.078-.584zM247.407 488.782L51.14 378.873v-65.777l196.267 109.909v65.777zm0-85.331L51.14 293.542V227.764l196.267 109.909v65.778zm0-85.334L51.14 208.208v-65.774L247.407 252.34v65.777zm8.538-80.557L60.072 127.871 255.94 18.184l195.873 109.69L255.945 237.56zM460.74 378.873l-196.267 109.91v-65.779L460.74 313.096v65.777zm0-85.331L264.474 403.451v-65.779L460.74 227.763v65.779zm0-85.334L264.474 318.117v-65.779L460.74 142.43v65.778z" />
	<path
		d="M102.34 119.34a8.533 8.533 0 00-8.533 8.533 8.445 8.445 0 002.475 6.059 8.44 8.44 0 009.3 1.792 9.862 9.862 0 002.817-1.792 9.991 9.991 0 001.792-2.817 7.145 7.145 0 00.683-3.242 8.534 8.534 0 00-8.534-8.533zM153.54 93.74a8.533 8.533 0 00-8.533 8.533v51.2a8.53 8.53 0 008.534 8.534 8.53 8.53 0 008.534-8.534v-51.2a8.536 8.536 0 00-8.535-8.533zM204.74 68.14a8.533 8.533 0 00-8.533 8.533v102.4a8.53 8.53 0 008.534 8.534 8.53 8.53 0 008.534-8.534v-102.4a8.536 8.536 0 00-8.535-8.533zM417.39 124.632a8.414 8.414 0 00-15.704 0 8.453 8.453 0 007.854 11.775 8.443 8.443 0 007.115-3.761 8.443 8.443 0 00.735-8.014zM358.34 93.74a8.533 8.533 0 00-8.533 8.533v51.2a8.53 8.53 0 008.534 8.534 8.53 8.53 0 008.534-8.534v-51.2a8.536 8.536 0 00-8.535-8.533zM307.14 68.14a8.533 8.533 0 00-8.533 8.533v102.4a8.53 8.53 0 008.534 8.534 8.53 8.53 0 008.534-8.534v-102.4a8.536 8.536 0 00-8.535-8.533zM255.94 42.54a8.533 8.533 0 00-8.533 8.533v153.6a8.53 8.53 0 008.534 8.534 8.53 8.53 0 008.534-8.534v-153.6a8.536 8.536 0 00-8.535-8.533z" />
</svg>