<svg id="Capa_1" enable-background="new 0 0 509.678 509.678" height="512" viewBox="0 0 509.678 509.678" width="512"
    xmlns="http://www.w3.org/2000/svg">
    <path
        d="m481.186 121.321h-348.172c-4.142 0-7.5 3.357-7.5 7.5s3.358 7.5 7.5 7.5h348.172c7.439 0 13.492 6.053 13.492 13.492s-6.053 13.492-13.492 13.492h-77.996c-4.142 0-7.5 3.357-7.5 7.5s3.358 7.5 7.5 7.5h58.719l-30.224 176.352c-1.857 10.835-11.184 18.699-22.177 18.699h-191.159c-4.142 0-7.5 3.357-7.5 7.5s3.358 7.5 7.5 7.5h191.159c18.321 0 33.866-13.107 36.961-31.166l30.658-178.885h4.058c15.71 0 28.492-12.781 28.492-28.492s-12.781-28.492-28.491-28.492z" />
    <path
        d="m188.349 373.357h-85.519c-10.993 0-20.32-7.864-22.177-18.699l-30.224-176.352h322.761c4.142 0 7.5-3.357 7.5-7.5s-3.358-7.5-7.5-7.5h-344.698c-7.439 0-13.492-6.053-13.492-13.492s6.053-13.492 13.492-13.492h74.521c4.142 0 7.5-3.357 7.5-7.5s-3.358-7.5-7.5-7.5h-74.521c-15.71-.001-28.492 12.781-28.492 28.491s12.782 28.492 28.492 28.492h6.719l30.658 178.885c3.095 18.059 18.64 31.166 36.961 31.166h85.519c4.142 0 7.5-3.357 7.5-7.5 0-4.142-3.358-7.499-7.5-7.499z" />
</svg>