<svg height="512" viewBox="0 0 509.678 509.678" width="512" xmlns="http://www.w3.org/2000/svg">
    <path
        d="M481.186 121.321H133.014c-4.142 0-7.5 3.357-7.5 7.5s3.358 7.5 7.5 7.5h348.172c7.439 0 13.492 6.053 13.492 13.492s-6.053 13.492-13.492 13.492H403.19c-4.142 0-7.5 3.357-7.5 7.5s3.358 7.5 7.5 7.5h58.719l-30.224 176.352a22.448 22.448 0 01-22.177 18.699H218.349c-4.142 0-7.5 3.357-7.5 7.5s3.358 7.5 7.5 7.5h191.159a37.414 37.414 0 0036.961-31.166l30.658-178.885h4.058c15.71 0 28.492-12.781 28.492-28.492s-12.781-28.492-28.491-28.492z" />
    <path
        d="M188.349 373.357H102.83a22.448 22.448 0 01-22.177-18.699L50.429 178.306H373.19c4.142 0 7.5-3.357 7.5-7.5s-3.358-7.5-7.5-7.5H28.492c-7.439 0-13.492-6.053-13.492-13.492s6.053-13.492 13.492-13.492h74.521c4.142 0 7.5-3.357 7.5-7.5s-3.358-7.5-7.5-7.5H28.492C12.782 121.321 0 134.103 0 149.813s12.782 28.492 28.492 28.492h6.719L65.869 357.19a37.414 37.414 0 0036.961 31.166h85.519a7.5 7.5 0 100-14.999z" />
</svg>