<svg viewBox="0 0 512 512" xmlns="http://www.w3.org/2000/svg">
    <path
        d="M502.013 98.67c5.518-.007 9.987-4.482 9.987-10V47.794c0-5.523-4.477-10-10-10H385.64c-17.826 0-33.163 4.742-44.353 13.714-9.312 7.467-20.411 21.785-20.411 47.594v28.494h-2.501c-5.523 0-10 4.477-10 10v42.64h-18.806v-2.728c0-10.501-8.513-19.014-19.014-19.014h-27.637c-10.501 0-19.014 8.513-19.014 19.014v2.727H198.04v-13.669c0-18.55-15.104-33.642-33.668-33.642h-25.03c-18.565 0-33.669 15.092-33.669 33.642v14.099C46.562 185.712 0 235.43 0 295.827 0 356.21 46.518 405.922 105.588 411.01v43.196H10.343c-5.326 0-9.976 4.019-10.321 9.333-.378 5.824 4.235 10.667 9.978 10.667h491.657c5.326 0 9.977-4.019 10.321-9.334.378-5.824-4.235-10.666-9.978-10.666H190.274v-42.759h33.63v2.728c0 10.501 8.513 19.014 19.014 19.014h27.638c10.501 0 19.014-8.513 19.014-19.014v-2.728h140.063c5.523 0 10-4.477 10-10V359.94H502c5.523 0 10-4.477 10-10V241.741c0-5.523-4.477-10-10-10h-62.367v-41.506c0-5.523-4.477-10-10-10h-31.611v-42.64c0-5.523-4.477-10-10-10h-2.501s-.009-25.628.016-26.234c.052-1.294 1.028-2.526 2.323-2.534 2.583-.015 114.153-.157 114.153-.157zm-376.34 67.896c0-7.522 6.132-13.642 13.669-13.642h25.03c7.537 0 13.668 6.119 13.668 13.642v13.669h-52.367zm44.601 287.64h-44.686v-42.759h44.686zm-54.686-62.759C62.88 391.447 20 348.552 20 295.827c0-52.71 42.881-95.592 95.588-95.592h108.316v191.212zM492 251.741v88.199h-52.367v-88.199zm-72.367 98.199v41.507H289.569V340.7c0-5.522-4.478-10-10-10s-10 4.478-10 10v72.488h-25.665V178.494h25.665v72.403c0 5.522 4.478 10 10 10s10-4.478 10-10v-50.662h130.063V349.94zm-91.258-169.705v-32.64h49.647v32.64zm42.902-95.166c-5.253 5.351-5.866 12.481-5.757 18.77v23.757h-24.645V99.102c0-34.142 24.343-41.308 44.764-41.308H492v20.889l-101.569.129c-6.058 0-13.709.71-19.154 6.257z" />
    <path
        d="M188.607 285.827h-26.305c-5.523 0-10 4.478-10 10s4.477 10 10 10h26.305c5.523 0 10-4.478 10-10s-4.477-10-10-10zM188.607 235.852h-26.305c-5.523 0-10 4.478-10 10s4.477 10 10 10h26.305c5.523 0 10-4.478 10-10s-4.477-10-10-10zM188.607 335.831h-26.305c-5.523 0-10 4.478-10 10s4.477 10 10 10h26.305c5.523 0 10-4.478 10-10s-4.477-10-10-10zM279.569 285.799c-5.522 0-10 4.478-10 10v.028c0 5.522 4.478 9.986 10 9.986s10-4.492 10-10.015-4.477-9.999-10-9.999z" />
</svg>