<svg fill="#36bde0" id="Capa_1" enable-background="new 0 0 512 512" height="512" viewBox="0 0 512 512" width="512"
    xmlns="http://www.w3.org/2000/svg">
    <g>
        <path
            d="m425.644 294.025c-16.709 0-31.838 6.872-42.727 17.93l-37.93-21.899c1.315-6.148 2.013-12.521 2.013-19.056v-30c0-6.535-.698-12.908-2.013-19.056l38.024-21.953c10.897 11.119 26.066 18.035 42.827 18.035 33.084 0 60-26.916 60-60s-26.916-60-60-60-60 26.916-60 60c0 5.534.769 10.89 2.178 15.982l-34.251 19.775c-13.504-22.158-36.209-38.115-62.765-42.539v-33.142c25.849-6.678 45-30.195 45-58.101 0-33.084-26.916-60-60-60s-60 26.916-60 60c0 27.906 19.151 51.424 45 58.101v33.142c-26.556 4.424-49.261 20.381-62.765 42.539l-34.251-19.775c1.409-5.092 2.178-10.447 2.178-15.982 0-33.084-26.916-60-60-60s-60 26.916-60 60 26.916 60 60 60c16.761 0 31.93-6.916 42.827-18.035l38.024 21.953c-1.315 6.148-2.013 12.521-2.013 19.056v30c0 6.535.698 12.908 2.013 19.056l-37.93 21.899c-10.89-11.058-26.018-17.93-42.727-17.93-33.084 0-60 26.916-60 60s26.916 60 60 60 60-26.916 60-60c0-5.585-.784-10.988-2.218-16.122l34.097-19.686c13.504 22.158 36.209 38.115 62.765 42.539v33.142c-25.849 6.678-45 30.195-45 58.101 0 33.084 26.916 60 60 60s60-26.916 60-60c0-27.906-19.151-51.424-45-58.101v-33.142c26.556-4.424 49.261-20.381 62.765-42.539l34.097 19.686c-1.434 5.134-2.218 10.536-2.218 16.122 0 33.084 26.916 60 60 60s60-26.916 60-60-26.916-60-60-60zm.194-166c16.542 0 30 13.458 30 30s-13.458 30-30 30-30-13.458-30-30 13.458-30 30-30zm-339.676 60c-16.542 0-30-13.458-30-30s13.458-30 30-30 30 13.458 30 30-13.458 30-30 30zm.194 196c-16.542 0-30-13.458-30-30s13.458-30 30-30 30 13.458 30 30-13.458 30-30 30zm139.644-324.025c0-16.542 13.458-30 30-30s30 13.458 30 30-13.458 30-30 30-30-13.458-30-30zm-31 211v-30c0-28.461 19.594-52.427 46-59.129v148.257c-26.406-6.701-46-30.667-46-59.128zm91 181c0 16.542-13.458 30-30 30s-30-13.458-30-30 13.458-30 30-30 30 13.458 30 30zm31-181c0 28.461-19.594 52.427-46 59.129v-148.258c26.406 6.702 46 30.668 46 59.129zm108.644 113.025c-16.542 0-30-13.458-30-30s13.458-30 30-30 30 13.458 30 30-13.458 30-30 30z" />
    </g>
</svg>