<svg id="Capa_1" enable-background="new 0 0 512 512" height="512" viewBox="0 0 512 512" width="512" xmlns="http://www.w3.org/2000/svg"><g><path d="m300 422h212v30h-212z"/><path d="m0 422h212v30h-212z"/><path d="m346.069 156.819c0 3.184-.169 6.329-.493 9.429 30.358-4.779 53.652-31.116 53.652-62.795 0-5.342 0-21.599-27.107-59.309-12.473-17.351-36.467-44.144-36.467-44.144s-21.574 24.083-32.666 38.955c-4.086 5.479-7.762 10.716-11.046 15.717 8.851 10.435 17.105 20.486 21.706 26.886 22.12 30.772 32.421 54.686 32.421 75.261z"/><path d="m256 217.888c33.673 0 61.069-27.395 61.069-61.069 0-14.007-8.821-33.088-26.969-58.334-12.625-17.563-34.1-41.547-34.1-41.547s-21.475 23.984-34.1 41.547c-18.147 25.246-26.969 44.327-26.969 58.334 0 33.674 27.396 61.069 61.069 61.069z"/><path d="m271 482v-104.679h50.851c43.941 0 77.078-31.27 77.078-72.737v-31.544h-65.851c-42.501 0-77.077 34.577-77.077 77.078 0-42.501-34.577-77.078-77.077-77.078h-65.851v31.544c0 41.467 33.136 72.737 77.078 72.737h50.849v104.679h-241v30h512v-30z"/></g></svg>